<svg xmlns="http://www.w3.org/2000/svg" viewBox="0 0 522.57 124.48"><defs><style>.cls-1{fill:#da335e;}.cls-2{fill:#34343a;}</style></defs><title>teamblee-logo</title><g id="katman_2" data-name="katman 2"><g id="Layer_1" data-name="Layer 1"><path class="cls-1" d="M485.37,28.15h-34.8a2.12,2.12,0,0,0-2.11,2.11V43.55a2.12,2.12,0,0,0,2.11,2.11h26.05v26a2.1,2.1,0,0,0,2.1,2.11H492a2.1,2.1,0,0,0,2.11-2.11V36.9A8.75,8.75,0,0,0,485.37,28.15Z"/><rect class="cls-2" x="476.62" width="17.5" height="23.46" rx="1.89" ry="1.89"/><rect class="cls-2" x="501.73" y="24.82" width="17.5" height="24.17" rx="1.89" ry="1.89" transform="translate(547.39 -473.58) rotate(90)"/><path class="cls-2" d="M60.65,102.24a5.75,5.75,0,0,0,1.82,3.28,13.5,13.5,0,0,0,10,3.76,33.31,33.31,0,0,0,11.39-2.15,4.32,4.32,0,0,1,1.34-.21c1.33,0,2.38.86,3.17,2.58L90.78,115a5.8,5.8,0,0,1,.64,2.26q0,1.88-2.84,3.38a37.65,37.65,0,0,1-17.46,3.87q-12.84,0-21.05-8.16a27.83,27.83,0,0,1-8.22-20.41A27.31,27.31,0,0,1,50,75.82a26.7,26.7,0,0,1,19.71-8.11,23.84,23.84,0,0,1,17.57,7Q95,82.54,95,95.1v3.12c.07,2.75-1.27,4.1-4,4Zm-.22-12.3H78.48a5.78,5.78,0,0,0-1.72-3.76,9.77,9.77,0,0,0-7.3-2.73A9.65,9.65,0,0,0,62.69,86,6.81,6.81,0,0,0,60.43,89.94Z"/><path class="cls-2" d="M141.75,121.47a27.89,27.89,0,0,1-12.84,3,28.61,28.61,0,0,1-28.52-28.36A28.62,28.62,0,0,1,128.7,67.71a29.22,29.22,0,0,1,13.05,3.06q.27-2.85,3.38-2.74h8c2.75-.07,4.1,1.27,4,4v47.48c.07,2.76-1.28,4.1-4,4h-8.81C142.75,123.6,141.89,122.91,141.75,121.47Zm-13.1-36.09a9.88,9.88,0,0,0-7.36,3,11.09,11.09,0,0,0,0,15.3,9.94,9.94,0,0,0,7.41,3,10.19,10.19,0,0,0,7.52-3,10.44,10.44,0,0,0,3-7.68,10.61,10.61,0,0,0-3-7.74A10.26,10.26,0,0,0,128.65,85.38Z"/><path class="cls-2" d="M206.74,72.22q6.49-4.52,15.85-4.51,12.45,0,19,7.14,5.74,6.34,5.74,17.35v27.34q.11,4.14-4,4h-9.88q-4.14.11-4-4V92.42a6.6,6.6,0,0,0-6.76-6.77A6.61,6.61,0,0,0,218,87.42a5.92,5.92,0,0,0-2.21,4.46v27.66c.08,2.76-1.27,4.1-4,4h-9.89c-2.75.07-4.1-1.27-4-4V92.42a6.85,6.85,0,0,0-11.45-5,5.94,5.94,0,0,0-2.2,4.46v27.66q.1,4.14-4,4h-9.88q-4.14.11-4-4V72.7c-.07-2.75,1.27-4.1,4-4h9.35a1.32,1.32,0,0,1,1.5,1.23,21.27,21.27,0,0,1,9.94-2.2A27,27,0,0,1,206.74,72.22Z"/><path class="cls-2" d="M256.27,68.57V64.06q.11-9.3,5-13.81,4-3.64,11.07-3.7h7.51q4.14-.11,4,4v8q.11,4.14-4,4h-1.77q-3.81,0-3.86,3.54v2.42h8.7c2.75-.07,4.1,1.27,4,4V81c.08,2.76-1.27,4.1-4,4h-8.7v34.48c.07,2.76-1.28,4.1-4,4h-9.89c-2.75.07-4.1-1.27-4-4V85.06h-2.15q-4.14.1-4-4V72.6q-.1-4.14,4-4Z"/><path class="cls-2" d="M290.93,119.54v-69c-.08-2.75,1.27-4.09,4-4h9.89c2.75-.07,4.1,1.27,4,4v69c.08,2.76-1.27,4.1-4,4H295C292.2,123.64,290.85,122.3,290.93,119.54Z"/><path class="cls-2" d="M332.81,102.24a5.75,5.75,0,0,0,1.82,3.28,13.5,13.5,0,0,0,10,3.76A33.31,33.31,0,0,0,356,107.13a4.32,4.32,0,0,1,1.34-.21c1.33,0,2.38.86,3.17,2.58l2.42,5.47a5.8,5.8,0,0,1,.64,2.26q0,1.88-2.84,3.38a37.68,37.68,0,0,1-17.46,3.87q-12.84,0-21-8.16A27.83,27.83,0,0,1,314,95.91a27.31,27.31,0,0,1,8.16-20.09,26.7,26.7,0,0,1,19.71-8.11,23.84,23.84,0,0,1,17.57,7q7.68,7.8,7.68,20.36v3.12c.07,2.75-1.27,4.1-4,4Zm-.22-12.3h18.05a5.78,5.78,0,0,0-1.72-3.76,9.78,9.78,0,0,0-7.3-2.73A9.65,9.65,0,0,0,334.85,86,6.81,6.81,0,0,0,332.59,89.94Z"/><path class="cls-2" d="M421.81,82.48l-7.9,5.1a5.1,5.1,0,0,1-2.58,1,5,5,0,0,1-2.68-1.07,10.8,10.8,0,0,0-6.29-1.88,10.23,10.23,0,0,0-7.46,3,9.92,9.92,0,0,0-3,7.3,10.27,10.27,0,0,0,3.11,7.52,9.94,9.94,0,0,0,7.31,3,10.06,10.06,0,0,0,7.46-3.44,4,4,0,0,1,2.85-1.45,5,5,0,0,1,2.2.7l8.81,4.51c1.58.82,2.37,1.9,2.37,3.22,0,1.08-.94,2.65-2.8,4.73A28.32,28.32,0,0,1,373.63,96a28.22,28.22,0,0,1,28.3-28.25q10.53,0,19.23,7.63,2.68,2.35,2.69,4.13C423.85,80.58,423.17,81.58,421.81,82.48Z"/><path class="cls-2" d="M33.37,86.61H28.42a3,3,0,0,0-3,3V101.9q0,3.48,2.53,4.32a18,18,0,0,0,5.41.62,3,3,0,0,1,3,3v10a3,3,0,0,1-2.75,3Q20.1,124,14.29,119.67q-6.39-4.8-6.38-17.35V89.62a3,3,0,0,0-3-3H3a3,3,0,0,1-3-3V72.85a3,3,0,0,1,3-3H4.9a3,3,0,0,0,3-3V62.59a3,3,0,0,1,2.14-2.88l11.49-3.46a3,3,0,0,1,3.87,2.88v7.71a3,3,0,0,0,3,3h4.95a3,3,0,0,1,3,3V83.61A3,3,0,0,1,33.37,86.61Z"/><path class="cls-2" d="M461.75,88h-5a3,3,0,0,0-3,3v12.29q0,3.48,2.53,4.32a18,18,0,0,0,5.41.61,3,3,0,0,1,3,3v10a3,3,0,0,1-2.74,3q-13.54,1.18-19.35-3.19-6.37-4.79-6.37-17.34V91a3,3,0,0,0-3-3h-1.9a3,3,0,0,1-3-3V74.23a3,3,0,0,1,3-3h1.9a3,3,0,0,0,3-3V64a3,3,0,0,1,2.13-2.88l11.49-3.46a3,3,0,0,1,3.88,2.88v7.71a3,3,0,0,0,3,3h5a3,3,0,0,1,3,3V85A3,3,0,0,1,461.75,88Z"/></g></g></svg>